<?xml version="1.0" encoding="utf-8"?>
<!-- Generator: Adobe Illustrator 26.1.0, SVG Export Plug-In . SVG Version: 6.00 Build 0)  -->
<svg version="1.1" id="Capa_1" xmlns="http://www.w3.org/2000/svg" xmlns:xlink="http://www.w3.org/1999/xlink" x="0px" y="0px"
	 viewBox="0 0 306 87" style="enable-background:new 0 0 306 87;" xml:space="preserve">
<style type="text/css">
	.st0{fill:#752400;}
	.st1{fill:#F9B500;}
	.st2{fill:url(#);}
	.st3{fill:none;stroke:#AEBFC2;stroke-miterlimit:10;}
	.st4{fill:#AEBFC2;}
	.st5{fill:url(#SVGID_1_);}
	.st6{fill:#FCC51D;}
	.st7{fill:#FFE632;}
	.st8{fill:none;stroke:#003743;stroke-width:17;stroke-miterlimit:10;}
	.st9{fill:#003743;}
	.st10{fill:none;stroke:#003743;stroke-width:20;stroke-linecap:round;stroke-linejoin:round;stroke-miterlimit:10;}
	.st11{fill:none;stroke:#003743;stroke-width:19;stroke-linecap:round;stroke-linejoin:round;stroke-miterlimit:10;}
	.st12{fill:none;stroke:#003743;stroke-width:21;stroke-linecap:round;stroke-linejoin:round;stroke-miterlimit:10;}
	.st13{fill:#002434;}
	.st14{fill:url(#SVGID_00000158025834517045630160000004024691688292726193_);}
	.st15{fill:#FE009D;}
	.st16{fill:url(#SVGID_00000065043725610757173110000002387041683695978637_);}
	.st17{fill:none;stroke:#F5A52B;stroke-width:1.4883;stroke-miterlimit:10;}
	.st18{fill:#FFD000;}
	.st19{fill:none;stroke:#003743;stroke-width:4.3631;stroke-miterlimit:10;}
	.st20{fill:none;stroke:#003743;stroke-width:5.1331;stroke-linecap:round;stroke-linejoin:round;stroke-miterlimit:10;}
	.st21{fill:none;stroke:#003743;stroke-width:4.8764;stroke-linecap:round;stroke-linejoin:round;stroke-miterlimit:10;}
	.st22{fill:none;stroke:#003743;stroke-width:5.3897;stroke-linecap:round;stroke-linejoin:round;stroke-miterlimit:10;}
	.st23{fill:none;stroke:#003743;stroke-width:4.1065;stroke-linecap:round;stroke-linejoin:round;stroke-miterlimit:10;}
	.st24{fill:#003643;}
	.st25{opacity:0.17;}
	.st26{fill:none;stroke:#FFFFFF;stroke-width:2;stroke-miterlimit:10;}
	.st27{fill:#F49C2C;}
	.st28{fill:#F5A52B;}
	.st29{fill:#FEDE9D;}
	.st30{fill:#FFC91C;}
	.st31{fill:#00A88F;}
	.st32{fill:#FFCD8C;}
	.st33{fill:#F3A42B;}
	.st34{fill:none;stroke:#FCC51D;stroke-width:2.931;stroke-linecap:round;stroke-linejoin:round;stroke-miterlimit:10;}
	.st35{fill:#FFFFFF;}
	.st36{fill:#2E2C2F;}
	.st37{fill:#EA4335;}
	.st38{fill:#FBBC04;}
	.st39{fill:#4285F4;}
	.st40{fill:#34A853;}
	.st41{fill:none;stroke:#FEDE9D;stroke-linecap:round;stroke-linejoin:round;stroke-miterlimit:10;stroke-dasharray:8,20;}
	.st42{fill:none;stroke:#FEDE9D;stroke-width:1.5;stroke-linecap:round;stroke-linejoin:round;stroke-miterlimit:10;}
	.st43{fill:url(#SVGID_00000127753218809564344810000007878490394701737895_);}
	.st44{fill:#FF16FF;}
	.st45{fill:none;stroke:#FF16FF;stroke-width:4;stroke-miterlimit:10;}
	.st46{fill:#FF6DFF;}
	.st47{opacity:0.72;fill:#FFFFFF;}
	.st48{fill:#FFE300;}
	.st49{fill:#FCB41D;}
	.st50{fill:none;stroke:#752400;stroke-width:6.0764;stroke-linecap:round;stroke-linejoin:round;stroke-miterlimit:10;}
	.st51{fill:none;stroke:#752400;stroke-width:4.81;stroke-linecap:round;stroke-linejoin:round;stroke-miterlimit:10;}
	.st52{fill:none;stroke:#DD24FF;stroke-width:0.2509;stroke-miterlimit:10;}
	.st53{fill:none;stroke:#DD24FF;stroke-width:0.1774;stroke-miterlimit:10;}
	.st54{fill:none;stroke:#DD24FF;stroke-width:0.1255;stroke-miterlimit:10;}
	.st55{fill:none;stroke:#DD24FF;stroke-width:0.433;stroke-miterlimit:10;}
	.st56{fill:none;stroke:#DD24FF;stroke-width:0.1768;stroke-miterlimit:10;}
	.st57{clip-path:url(#SVGID_00000160153161027899714480000012691093304948959159_);}
	.st58{fill:none;stroke:#F5BF2B;stroke-width:2.4797;stroke-miterlimit:10;}
	.st59{clip-path:url(#SVGID_00000140708657248268407630000013998360373381022097_);}
	.st60{fill:none;stroke:#003947;stroke-width:2.4797;stroke-miterlimit:10;}
</style>
<g>
	<rect x="134.5" y="50.82" class="st18" width="15" height="20.66"/>
	<path class="st18" d="M101.84,61.83c0.14,0,12.94,0,12.94,0s-5.49-18.52-5.72-18.34c-0.23,0.18-3.11,1.78-3.11,2.01
		S101.84,61.83,101.84,61.83z"/>
	<g>
		<path class="st9" d="M119.28,57.83c-0.95-2.92-1.88-5.72-2.78-8.41s-1.76-5.08-2.56-7.16c-0.27-0.83-0.94-1.44-2.02-1.82
			c-1.08-0.38-2.26-0.57-3.55-0.57c-0.99,0-1.95,0.11-2.9,0.34c-0.95,0.23-1.65,0.47-2.1,0.74c-0.53,1.33-1.16,2.96-1.88,4.92
			c-0.72,1.95-1.49,4.04-2.3,6.28c-0.82,2.24-1.6,4.45-2.36,6.65c-0.76,2.2-1.46,4.23-2.1,6.11c-0.64,1.88-1.16,3.44-1.53,4.69
			c-0.15,0.57-0.29,1.08-0.43,1.53c-0.13,0.46-0.2,0.89-0.2,1.31c0,0.95,0.35,1.66,1.05,2.13c0.7,0.47,1.66,0.71,2.87,0.71
			c0.61,0,1.13-0.05,1.56-0.14c0.44-0.09,0.84-0.2,1.22-0.31c0.19-0.61,0.41-1.31,0.65-2.1c0.25-0.79,0.51-1.64,0.8-2.53
			c0.28-0.89,0.55-1.77,0.8-2.64c0.1-0.36,0.2-0.69,0.3-1.02h12.84l1.83,5.85c0.3,0.99,0.73,1.71,1.28,2.19
			c0.55,0.47,1.45,0.71,2.7,0.71c0.87,0,1.64-0.13,2.3-0.4c0.66-0.26,1.18-0.61,1.56-1.02c-0.68-2.23-1.46-4.74-2.33-7.5
			C121.13,63.59,120.22,60.75,119.28,57.83z M104.85,56.21c0.64-1.88,1.26-3.68,1.85-5.43c0.59-1.74,1.13-3.3,1.62-4.66h0.28
			c0.38,1.17,0.83,2.58,1.36,4.21c0.53,1.63,1.09,3.38,1.68,5.26c0.55,1.74,1.1,3.52,1.66,5.31h-10.03
			C103.77,59.38,104.29,57.83,104.85,56.21z"/>
		<path class="st9" d="M148.48,48.54c-2.16-0.97-4.62-1.45-7.39-1.45c-2.05,0-3.88,0.24-5.51,0.71c-1.63,0.47-2.99,1.03-4.09,1.68
			c-0.8,0.49-1.36,1.02-1.71,1.59c-0.34,0.57-0.51,1.29-0.51,2.16v16.65v1.99V82.1c0,1.21,0.31,2.06,0.94,2.56
			c0.62,0.49,1.58,0.74,2.87,0.74c0.68,0,1.31-0.05,1.88-0.14c0.57-0.1,1-0.2,1.31-0.31V74.38c0.48,0.2,0.99,0.4,1.56,0.58
			c1.23,0.4,2.6,0.6,4.12,0.6c2.61,0,4.93-0.54,6.96-1.62c2.03-1.08,3.62-2.68,4.77-4.8c1.15-2.12,1.73-4.77,1.73-7.96
			c0-3.3-0.62-5.98-1.85-8.07C152.34,51.03,150.64,49.51,148.48,48.54z M146.33,67.81c-1.33,1.42-3.12,2.13-5.4,2.13
			c-1.36,0-2.55-0.24-3.55-0.71c-0.4-0.19-0.76-0.39-1.11-0.6V53.91c0.57-0.34,1.25-0.63,2.05-0.88c0.8-0.25,1.72-0.37,2.78-0.37
			c1.36,0,2.59,0.28,3.69,0.85c1.1,0.57,1.96,1.47,2.59,2.7c0.62,1.23,0.94,2.89,0.94,4.97C148.31,64.18,147.65,66.38,146.33,67.81z
			"/>
		<path class="st9" d="M164.85,47.66c-0.68,0-1.32,0.05-1.9,0.14c-0.59,0.1-1.03,0.2-1.34,0.31v11.65v3.58v8.52
			c0,1.21,0.32,2.06,0.97,2.53c0.64,0.47,1.61,0.71,2.9,0.71c0.68,0,1.31-0.05,1.88-0.14c0.57-0.1,1-0.2,1.31-0.31V63.34v-3.58
			v-8.81c0-1.25-0.3-2.11-0.91-2.59C167.14,47.9,166.18,47.66,164.85,47.66z"/>
		<path class="st9" d="M165.13,35.96c-1.17,0-2.15,0.38-2.93,1.14c-0.78,0.76-1.16,1.69-1.16,2.78c0,1.06,0.39,1.98,1.16,2.76
			c0.78,0.78,1.75,1.17,2.93,1.17c1.21,0,2.19-0.39,2.93-1.17c0.74-0.78,1.11-1.69,1.11-2.76c0-1.1-0.37-2.03-1.11-2.78
			S166.35,35.96,165.13,35.96z"/>
		<path class="st9" d="M201.39,41.44c-0.15-0.51-0.32-0.9-0.51-1.17h-10.74h-5.23h-8.81c-0.8,0-1.42,0.25-1.88,0.74
			s-0.68,1.25-0.68,2.27c0,0.61,0.08,1.16,0.23,1.65c0.15,0.49,0.32,0.89,0.51,1.19h9.66v25.63c0,1.21,0.29,2.07,0.88,2.59
			c0.59,0.51,1.58,0.77,2.98,0.77c0.64,0,1.28-0.05,1.9-0.14c0.62-0.1,1.09-0.2,1.39-0.31V46.13h7.96c0.8,0,1.42-0.26,1.88-0.8
			c0.45-0.53,0.68-1.29,0.68-2.27C201.61,42.49,201.54,41.95,201.39,41.44z"/>
		<path class="st9" d="M221.59,48.6c-1.88-1-4.06-1.51-6.56-1.51c-1.78,0-3.49,0.29-5.11,0.88c-1.63,0.59-3.06,1.46-4.29,2.61
			c-1.23,1.16-2.21,2.61-2.93,4.35c-0.72,1.74-1.08,3.77-1.08,6.08c0,3.22,0.63,5.91,1.9,8.07c1.27,2.16,3.03,3.78,5.28,4.86
			c2.25,1.08,4.84,1.62,7.76,1.62c1.89,0,3.58-0.19,5.06-0.57c1.48-0.38,2.65-0.92,3.52-1.62c0.87-0.7,1.31-1.54,1.31-2.53
			c0-0.61-0.16-1.17-0.48-1.68c-0.32-0.51-0.75-0.94-1.28-1.28c-0.8,0.57-1.88,1.09-3.24,1.56s-2.84,0.71-4.43,0.71
			c-2.35,0-4.29-0.57-5.82-1.71c-1.22-0.91-2.06-2.23-2.53-3.96l15.85-2.29c0.98-0.11,1.75-0.43,2.3-0.94
			c0.55-0.51,0.82-1.3,0.82-2.36c0-2.31-0.54-4.36-1.62-6.14S223.46,49.6,221.59,48.6z M208.23,59.62c0.12-2.24,0.77-3.98,1.96-5.23
			c1.29-1.34,2.9-2.02,4.83-2.02c1.89,0,3.33,0.53,4.32,1.59c0.98,1.06,1.53,2.31,1.65,3.75L208.23,59.62z"/>
		<path class="st9" d="M253.1,68.23c-0.72,0.42-1.56,0.81-2.53,1.17c-0.97,0.36-2.15,0.54-3.55,0.54c-2.35,0-4.26-0.72-5.74-2.16
			c-1.48-1.44-2.22-3.56-2.22-6.36c0-2.84,0.77-5,2.3-6.48s3.44-2.22,5.71-2.22c1.33,0,2.46,0.17,3.41,0.51
			c0.95,0.34,1.8,0.74,2.56,1.19c0.42-0.3,0.78-0.7,1.08-1.19c0.3-0.49,0.45-1.02,0.45-1.59c0-1.29-0.76-2.37-2.27-3.24
			c-1.52-0.87-3.52-1.31-6.02-1.31c-2.61,0-5.01,0.52-7.19,1.56c-2.18,1.04-3.92,2.62-5.23,4.75c-1.31,2.12-1.96,4.79-1.96,8.01
			c0,3.11,0.62,5.72,1.85,7.84c1.23,2.12,2.94,3.7,5.11,4.74c2.18,1.04,4.71,1.56,7.59,1.56c2.54,0,4.58-0.41,6.14-1.22
			c1.55-0.81,2.33-1.87,2.33-3.15c0-0.68-0.16-1.26-0.48-1.73C254.11,68.98,253.66,68.57,253.1,68.23z"/>
		<path class="st9" d="M282.56,49.76c-2.07-1.78-4.8-2.67-8.21-2.67c-1.7,0-3.24,0.26-4.6,0.77c-0.71,0.27-1.35,0.54-1.93,0.81
			v-8.05c0-1.21-0.3-2.05-0.91-2.53c-0.61-0.47-1.57-0.71-2.9-0.71c-0.68,0-1.31,0.06-1.88,0.17c-0.57,0.11-1,0.21-1.31,0.28v21.93
			v3.58v8.52c0,1.21,0.31,2.06,0.94,2.53c0.62,0.47,1.58,0.71,2.87,0.71c0.68,0,1.31-0.05,1.88-0.14c0.57-0.1,1-0.2,1.31-0.31V63.34
			v-3.58v-5.38c0.55-0.35,1.13-0.69,1.79-0.99c1.08-0.49,2.26-0.74,3.55-0.74c1.59,0,2.91,0.44,3.95,1.31
			c1.04,0.87,1.56,2.27,1.56,4.2v1.65v3.47v8.58c0,1.21,0.3,2.06,0.91,2.53c0.61,0.47,1.57,0.71,2.9,0.71
			c0.64,0,1.26-0.05,1.85-0.14c0.59-0.1,1.03-0.2,1.34-0.31V63.29v-3.47v-1.99C285.65,54.23,284.62,51.54,282.56,49.76z"/>
	</g>
	<g>
		
			<ellipse transform="matrix(0.7071 -0.7071 0.7071 0.7071 -28.7796 33.9526)" class="st6" cx="26.59" cy="51.72" rx="20.88" ry="19.25"/>
		<path class="st7" d="M46.67,50.12c-0.87-1.94-2.09-3.74-3.67-5.32c-7.51-7.52-20.22-7-28.38,1.15c-4.28,4.28-6.46,9.81-6.47,15.2
			c-3.3-7.32-1.62-16.61,4.82-23.06c8.16-8.15,20.86-8.67,28.38-1.15C44.92,40.51,46.68,45.25,46.67,50.12z"/>
		<g>
			<path class="st9" d="M60.36,47.57c-1.2,0-2.27-0.85-2.51-2.07c-2.51-12.69-12.33-22.52-25.03-25.03
				c-1.39-0.27-2.29-1.62-2.02-3.02c0.27-1.39,1.63-2.29,3.02-2.02c14.74,2.92,26.15,14.33,29.07,29.07
				c0.28,1.39-0.63,2.74-2.02,3.02C60.69,47.55,60.52,47.57,60.36,47.57z"/>
		</g>
		<path class="st9" d="M45.22,62.47C50.67,53.74,50,42.5,42.9,35.41c-7.16-7.16-18.56-7.78-27.33-2.15c-0.11,0.05-0.2,0.12-0.3,0.18
			c-1.35,0.89-2.64,1.93-3.83,3.12C4.7,43.3,2.72,52.92,5.67,60.83c2.11,7.9-4.87,13.71-3.39,15.24c1.32,1.37,6.56-5.39,16.08-3.15
			c2.12,0.68,4.34,1.04,6.59,1.04c5.96,0,12.08-2.39,16.79-7.1c1.2-1.2,2.24-2.49,3.13-3.85C45.02,62.86,45.13,62.67,45.22,62.47z
			 M28.23,33.82c4.29,0,8.46,1.54,11.59,4.67c3.88,3.88,5.3,9.34,4.39,14.68c-1.42-4.05-3.98-8.1-7.43-11.55
			c-3.51-3.51-7.63-6.09-11.74-7.5C26.1,33.93,27.17,33.82,28.23,33.82z M9.9,47.07c4.28-1.55,10.7,0.81,15.61,5.72
			c4.9,4.9,7.26,11.31,5.74,15.58c-0.01,0.04-0.02,0.08-0.03,0.12c-1.45,0.52-2.94,0.84-4.43,0.99c0.22-4.09-1.79-8.77-5.5-12.48
			c-3.69-3.69-8.39-5.71-12.48-5.5c0.15-1.49,0.48-2.98,0.99-4.43C9.84,47.09,9.87,47.08,9.9,47.07z M13.37,64.94
			c-2.25-2.25-3.66-5.04-4.29-8.03c2.52-0.15,5.83,1.36,8.39,3.92c2.94,2.94,4.04,6.19,3.93,8.39
			C18.42,68.6,15.62,67.19,13.37,64.94z M36.82,65.4c-0.06-5.34-2.83-11.38-7.67-16.23c-4.85-4.85-10.89-7.62-16.23-7.68
			c0.5-0.64,1.03-1.26,1.61-1.84c0.66-0.66,1.37-1.25,2.09-1.79c0.11,0,0.21,0.01,0.32,0c5.02-0.56,11.45,2.28,16.39,7.22
			c4.93,4.93,7.7,11.13,7.24,16.19c-0.01,0.1,0,0.19,0,0.29c-0.58,0.77-1.2,1.53-1.91,2.23C38.08,64.37,37.45,64.9,36.82,65.4z"/>
		<g>
			<path class="st9" d="M74.13,44.83c-1.2,0-2.27-0.85-2.51-2.07C68,24.47,53.84,10.31,35.55,6.69c-1.39-0.27-2.29-1.62-2.02-3.02
				c0.27-1.39,1.63-2.29,3.02-2.02c20.34,4.02,36.08,19.77,40.1,40.1c0.28,1.39-0.63,2.74-2.02,3.02
				C74.47,44.81,74.3,44.83,74.13,44.83z"/>
		</g>
	</g>
	<g>
		<path class="st9" d="M293.19,57.77c-0.96,0-1.82-0.68-2.01-1.66c-1.38-7-6.8-12.41-13.79-13.79c-1.11-0.22-1.84-1.3-1.62-2.41
			c0.22-1.11,1.3-1.84,2.41-1.62c8.64,1.71,15.32,8.39,17.03,17.03c0.22,1.11-0.5,2.19-1.62,2.41
			C293.46,57.76,293.33,57.77,293.19,57.77z"/>
	</g>
	<g>
		<path class="st9" d="M301.87,56.05c-0.96,0-1.82-0.68-2.01-1.66c-2.08-10.52-10.22-18.66-20.74-20.74
			c-1.11-0.22-1.84-1.3-1.62-2.41c0.22-1.11,1.3-1.84,2.41-1.62c12.16,2.4,21.57,11.81,23.97,23.97c0.22,1.11-0.5,2.19-1.62,2.41
			C302.13,56.03,302,56.05,301.87,56.05z"/>
	</g>
</g>
</svg>
