<?xml version="1.0" encoding="utf-8"?>
<!-- Generator: Adobe Illustrator 26.1.0, SVG Export Plug-In . SVG Version: 6.00 Build 0)  -->
<svg version="1.1" id="Capa_1" xmlns="http://www.w3.org/2000/svg" xmlns:xlink="http://www.w3.org/1999/xlink" x="0px" y="0px"
	 viewBox="0 0 1318 248" style="enable-background:new 0 0 1318 248;" xml:space="preserve">
<style type="text/css">
	.st0{fill:#752400;}
	.st1{fill:#F9B500;}
	.st2{fill:url(#);}
	.st3{fill:none;stroke:#AEBFC2;stroke-miterlimit:10;}
	.st4{fill:#AEBFC2;}
	.st5{fill:url(#SVGID_1_);}
	.st6{fill:#FCC51D;}
	.st7{fill:#FFE632;}
	.st8{fill:none;stroke:#003743;stroke-width:17;stroke-miterlimit:10;}
	.st9{fill:#003743;}
	.st10{fill:none;stroke:#003743;stroke-width:20;stroke-linecap:round;stroke-linejoin:round;stroke-miterlimit:10;}
	.st11{fill:none;stroke:#003743;stroke-width:19;stroke-linecap:round;stroke-linejoin:round;stroke-miterlimit:10;}
	.st12{fill:none;stroke:#003743;stroke-width:21;stroke-linecap:round;stroke-linejoin:round;stroke-miterlimit:10;}
	.st13{fill:#002434;}
	.st14{fill:url(#SVGID_00000054248728433907799030000012751640511477521796_);}
	.st15{fill:#FE009D;}
	.st16{fill:url(#SVGID_00000183948921475072385980000006240839624398506394_);}
	.st17{fill:none;stroke:#F5A52B;stroke-width:1.4883;stroke-miterlimit:10;}
	.st18{fill:#FFD000;}
	.st19{fill:none;stroke:#003743;stroke-width:4.3631;stroke-miterlimit:10;}
	.st20{fill:none;stroke:#003743;stroke-width:5.1331;stroke-linecap:round;stroke-linejoin:round;stroke-miterlimit:10;}
	.st21{fill:none;stroke:#003743;stroke-width:4.8764;stroke-linecap:round;stroke-linejoin:round;stroke-miterlimit:10;}
	.st22{fill:none;stroke:#003743;stroke-width:5.3897;stroke-linecap:round;stroke-linejoin:round;stroke-miterlimit:10;}
	.st23{fill:none;stroke:#003743;stroke-width:4.1065;stroke-linecap:round;stroke-linejoin:round;stroke-miterlimit:10;}
	.st24{fill:#003643;}
	.st25{fill:#F49C2C;}
	.st26{fill:#F5A52B;}
	.st27{fill:#FEDE9D;}
	.st28{fill:#FFC91C;}
	.st29{fill:#00A88F;}
	.st30{fill:#FFCD8C;}
	.st31{fill:#F3A42B;}
	.st32{fill:none;stroke:#FCC51D;stroke-width:2.931;stroke-linecap:round;stroke-linejoin:round;stroke-miterlimit:10;}
	.st33{fill:#FFFFFF;}
	.st34{fill:#2E2C2F;}
	.st35{fill:#EA4335;}
	.st36{fill:#FBBC04;}
	.st37{fill:#4285F4;}
	.st38{fill:#34A853;}
	.st39{fill:none;stroke:#FEDE9D;stroke-linecap:round;stroke-linejoin:round;stroke-miterlimit:10;stroke-dasharray:8,20;}
	.st40{fill:none;stroke:#FEDE9D;stroke-width:1.5;stroke-linecap:round;stroke-linejoin:round;stroke-miterlimit:10;}
	.st41{fill:url(#SVGID_00000075861257748277645240000002216493031281515964_);}
	.st42{fill:none;stroke:#FFFFFF;stroke-width:2;stroke-miterlimit:10;}
	.st43{fill:#FF16FF;}
	.st44{fill:none;stroke:#FF16FF;stroke-width:4;stroke-miterlimit:10;}
	.st45{fill:#FF6DFF;}
	.st46{opacity:0.61;clip-path:url(#SVGID_00000021110254750741324010000013074314792905002424_);fill:#752400;}
	.st47{fill:#FFE300;}
	.st48{fill:#FCB41D;}
	.st49{fill:none;stroke:#752400;stroke-width:6.0764;stroke-linecap:round;stroke-linejoin:round;stroke-miterlimit:10;}
	.st50{fill:none;stroke:#DD24FF;stroke-width:0.2509;stroke-miterlimit:10;}
	.st51{fill:none;stroke:#DD24FF;stroke-width:0.1774;stroke-miterlimit:10;}
	.st52{fill:none;stroke:#DD24FF;stroke-width:0.1255;stroke-miterlimit:10;}
	.st53{fill:none;stroke:#DD24FF;stroke-width:0.433;stroke-miterlimit:10;}
	.st54{fill:none;stroke:#DD24FF;stroke-width:0.1768;stroke-miterlimit:10;}
	.st55{clip-path:url(#SVGID_00000071535727962023098320000005689898945170186171_);}
	.st56{fill:none;stroke:#F5BF2B;stroke-width:2.4797;stroke-miterlimit:10;}
	.st57{clip-path:url(#SVGID_00000108302624214427948770000011170328518856778635_);}
	.st58{fill:none;stroke:#003947;stroke-width:2.4797;stroke-miterlimit:10;}
	.st59{opacity:0.17;}
	.st60{opacity:0.86;fill:#FFFFFF;}
	.st61{fill:none;stroke:#752400;stroke-width:4.81;stroke-linecap:round;stroke-linejoin:round;stroke-miterlimit:10;}
	.st62{fill:#FF9F00;}
</style>
<g>
	<path class="st27" d="M205.85,246.91c-0.01,0-0.02,0-0.02,0c-2.63-0.13-5.32-0.32-8-0.56c-0.27-0.02-0.48-0.27-0.45-0.54
		c0.02-0.27,0.26-0.48,0.54-0.45c2.67,0.24,5.34,0.43,7.96,0.55c0.28,0.01,0.49,0.25,0.48,0.52
		C206.33,246.71,206.11,246.91,205.85,246.91z M225.83,246.78c-0.26,0-0.48-0.2-0.5-0.47c-0.02-0.28,0.19-0.51,0.47-0.53
		c2.66-0.17,5.33-0.42,7.94-0.72c0.28-0.04,0.52,0.16,0.55,0.44c0.03,0.27-0.16,0.52-0.44,0.55c-2.62,0.31-5.31,0.55-7.99,0.73
		C225.85,246.78,225.84,246.78,225.83,246.78z M178.06,243.64c-0.03,0-0.06,0-0.09-0.01c-2.59-0.47-5.23-1-7.86-1.56
		c-0.27-0.06-0.44-0.32-0.38-0.59c0.06-0.27,0.33-0.44,0.59-0.38c2.62,0.56,5.25,1.09,7.83,1.56c0.27,0.05,0.45,0.31,0.4,0.58
		C178.51,243.47,178.3,243.64,178.06,243.64z M253.45,242.42c-0.22,0-0.43-0.15-0.48-0.37c-0.07-0.27,0.09-0.54,0.36-0.61
		c2.55-0.66,5.12-1.42,7.64-2.26c0.26-0.09,0.55,0.05,0.63,0.32c0.09,0.26-0.05,0.55-0.32,0.63c-2.54,0.85-5.14,1.61-7.7,2.28
		C253.53,242.41,253.49,242.42,253.45,242.42z M150.83,237.16c-0.05,0-0.09-0.01-0.14-0.02c-2.52-0.73-5.1-1.51-7.67-2.32
		c-0.26-0.08-0.41-0.36-0.33-0.63c0.08-0.26,0.36-0.41,0.63-0.33c2.57,0.81,5.14,1.59,7.65,2.32c0.27,0.08,0.42,0.35,0.34,0.62
		C151.25,237.02,151.05,237.16,150.83,237.16z M279.5,232.3c-0.18,0-0.35-0.1-0.44-0.27c-0.13-0.24-0.04-0.55,0.21-0.68
		c2.34-1.23,4.67-2.56,6.93-3.94c0.24-0.14,0.54-0.07,0.69,0.17c0.14,0.24,0.07,0.54-0.17,0.69c-2.27,1.39-4.62,2.73-6.98,3.97
		C279.66,232.28,279.58,232.3,279.5,232.3z M1213.9,232.19c-0.01,0-0.02,0-0.03,0c-2.64-0.15-5.33-0.39-8-0.69
		c-0.27-0.03-0.47-0.28-0.44-0.55s0.29-0.47,0.55-0.44c2.65,0.3,5.32,0.54,7.94,0.69c0.28,0.02,0.49,0.25,0.47,0.53
		C1214.38,231.99,1214.16,232.19,1213.9,232.19z M1233.87,231.81c-0.25,0-0.47-0.19-0.5-0.45c-0.03-0.27,0.17-0.52,0.45-0.55
		c2.66-0.27,5.31-0.62,7.89-1.07c0.27-0.05,0.53,0.14,0.58,0.41c0.05,0.27-0.14,0.53-0.41,0.58c-2.6,0.45-5.28,0.81-7.96,1.08
		C1233.91,231.81,1233.89,231.81,1233.87,231.81z M124.28,228.3c-0.06,0-0.12-0.01-0.18-0.03l-0.36-0.14
		c-2.41-0.9-4.8-1.83-7.11-2.75c-0.26-0.1-0.38-0.39-0.28-0.65c0.1-0.26,0.39-0.38,0.65-0.28c2.31,0.92,4.69,1.84,7.09,2.74
		l0.36,0.14c0.26,0.1,0.39,0.39,0.29,0.64C124.67,228.17,124.48,228.3,124.28,228.3z M1186.27,227.89c-0.04,0-0.08,0-0.12-0.02
		c-2.58-0.65-5.18-1.38-7.73-2.16c-0.26-0.08-0.41-0.36-0.33-0.62c0.08-0.26,0.36-0.41,0.62-0.33c2.53,0.78,5.12,1.5,7.68,2.15
		c0.27,0.07,0.43,0.34,0.36,0.61C1186.7,227.74,1186.5,227.89,1186.27,227.89z M1261.05,225.46c-0.2,0-0.39-0.12-0.47-0.32
		c-0.1-0.26,0.03-0.55,0.29-0.65c2.48-0.97,4.93-2.05,7.28-3.21c0.25-0.12,0.55-0.02,0.67,0.23c0.12,0.25,0.02,0.55-0.23,0.67
		c-2.37,1.18-4.85,2.27-7.36,3.24C1261.17,225.45,1261.11,225.46,1261.05,225.46z M1159.87,218.67c-0.07,0-0.14-0.01-0.2-0.04
		c-2.4-1.07-4.84-2.22-7.25-3.42c-0.25-0.12-0.35-0.42-0.23-0.67c0.12-0.25,0.42-0.35,0.67-0.23c2.41,1.19,4.83,2.33,7.22,3.4
		c0.25,0.11,0.36,0.41,0.25,0.66C1160.24,218.56,1160.06,218.67,1159.87,218.67z M98.44,217.51c-0.07,0-0.14-0.02-0.21-0.05
		c-2.45-1.14-4.88-2.32-7.22-3.49c-0.25-0.12-0.35-0.42-0.22-0.67c0.12-0.25,0.42-0.35,0.67-0.22c2.33,1.17,4.75,2.33,7.19,3.47
		c0.25,0.12,0.36,0.41,0.24,0.66C98.81,217.4,98.63,217.51,98.44,217.51z M302.58,216.55c-0.14,0-0.28-0.06-0.38-0.17
		c-0.18-0.21-0.16-0.52,0.05-0.71c2.01-1.75,3.97-3.57,5.83-5.43c0.2-0.2,0.51-0.2,0.71,0c0.19,0.2,0.19,0.51,0,0.71
		c-1.87,1.87-3.85,3.71-5.88,5.47C302.82,216.51,302.7,216.55,302.58,216.55z M1285.05,211.3c-0.14,0-0.28-0.06-0.38-0.18
		c-0.18-0.21-0.15-0.53,0.06-0.7c1.14-0.96,2.27-1.98,3.35-3.01c0.83-0.78,1.65-1.6,2.44-2.42c0.19-0.2,0.51-0.2,0.71-0.01
		c0.2,0.19,0.2,0.51,0.01,0.71c-0.8,0.83-1.64,1.66-2.48,2.45c-1.1,1.04-2.24,2.07-3.4,3.05
		C1285.28,211.26,1285.17,211.3,1285.05,211.3z M1135.08,205.69c-0.09,0-0.17-0.02-0.25-0.07c-2.24-1.33-4.54-2.74-6.83-4.18
		c-0.23-0.15-0.3-0.46-0.16-0.69c0.15-0.23,0.46-0.3,0.69-0.16c2.29,1.44,4.58,2.84,6.81,4.17c0.24,0.14,0.31,0.45,0.17,0.69
		C1135.42,205.6,1135.25,205.69,1135.08,205.69z M73.71,204.41c-0.09,0-0.18-0.02-0.26-0.07c-2.3-1.39-4.59-2.83-6.79-4.27
		c-0.23-0.15-0.3-0.46-0.14-0.69c0.15-0.23,0.46-0.29,0.69-0.14c2.19,1.44,4.47,2.86,6.76,4.25c0.24,0.14,0.31,0.45,0.17,0.69
		C74.04,204.32,73.88,204.41,73.71,204.41z M321.2,195.75c-0.1,0-0.19-0.03-0.28-0.09c-0.23-0.16-0.29-0.47-0.13-0.69
		c1.5-2.2,2.91-4.48,4.2-6.76c0.14-0.24,0.44-0.32,0.68-0.19c0.24,0.14,0.33,0.44,0.19,0.68c-1.3,2.3-2.73,4.6-4.24,6.83
		C321.52,195.67,321.36,195.75,321.2,195.75z M1111.6,190.45c-0.1,0-0.2-0.03-0.28-0.09c-2.19-1.52-4.37-3.06-6.54-4.61
		c-0.22-0.16-0.28-0.47-0.12-0.7c0.16-0.22,0.47-0.28,0.7-0.12c2.17,1.55,4.35,3.09,6.53,4.6c0.23,0.16,0.28,0.47,0.12,0.7
		C1111.92,190.37,1111.76,190.45,1111.6,190.45z M1302.89,189.9c-0.09,0-0.17-0.02-0.25-0.07c-0.24-0.14-0.32-0.44-0.18-0.68
		c1.31-2.26,2.56-4.63,3.69-7.05c0.12-0.25,0.41-0.36,0.66-0.24c0.25,0.12,0.36,0.41,0.24,0.66c-1.14,2.44-2.4,4.84-3.73,7.13
		C1303.23,189.82,1303.06,189.9,1302.89,189.9z M50.79,188.36c-0.11,0-0.22-0.04-0.32-0.11c-2.09-1.71-4.14-3.46-6.09-5.22
		c-0.21-0.18-0.22-0.5-0.04-0.71s0.5-0.22,0.71-0.04c1.94,1.75,3.98,3.49,6.06,5.19c0.21,0.17,0.25,0.49,0.07,0.7
		C51.08,188.3,50.94,188.36,50.79,188.36z M428.65,185.55C428.65,185.55,428.65,185.55,428.65,185.55
		c-2.66-0.01-5.36-0.05-8.01-0.14c-0.28-0.01-0.49-0.24-0.48-0.51c0.01-0.28,0.24-0.5,0.52-0.48c2.65,0.08,5.33,0.13,7.98,0.13
		c0.28,0,0.5,0.23,0.5,0.5S428.92,185.55,428.65,185.55z M448.63,184.93c-0.26,0-0.48-0.2-0.5-0.47c-0.02-0.28,0.19-0.51,0.47-0.53
		c2.66-0.17,5.34-0.38,7.96-0.63c0.28-0.02,0.52,0.18,0.54,0.45c0.03,0.27-0.18,0.52-0.45,0.54c-2.63,0.24-5.32,0.46-7.99,0.63
		C448.65,184.93,448.64,184.93,448.63,184.93z M400.69,184.11c-0.02,0-0.03,0-0.05,0c-2.65-0.27-5.33-0.57-7.96-0.91
		c-0.27-0.04-0.47-0.29-0.43-0.56c0.04-0.27,0.29-0.47,0.56-0.43c2.62,0.34,5.29,0.64,7.93,0.91c0.27,0.03,0.48,0.27,0.45,0.55
		C401.17,183.92,400.95,184.11,400.69,184.11z M476.44,181.78c-0.24,0-0.45-0.17-0.49-0.42c-0.04-0.27,0.14-0.53,0.41-0.57
		c2.61-0.42,5.26-0.89,7.87-1.38c0.27-0.05,0.53,0.13,0.58,0.4c0.05,0.27-0.13,0.53-0.4,0.58c-2.62,0.5-5.27,0.96-7.89,1.39
		C476.5,181.78,476.47,181.78,476.44,181.78z M373.01,179.96c-0.03,0-0.07,0-0.1-0.01c-2.62-0.53-5.25-1.09-7.83-1.69
		c-0.27-0.06-0.44-0.33-0.38-0.6c0.06-0.27,0.33-0.44,0.6-0.37c2.57,0.59,5.2,1.16,7.81,1.69c0.27,0.05,0.45,0.32,0.39,0.59
		C373.46,179.8,373.25,179.96,373.01,179.96z M503.83,175.98c-0.22,0-0.42-0.15-0.48-0.37c-0.07-0.27,0.09-0.54,0.36-0.61
		c2.57-0.68,5.16-1.39,7.69-2.14c0.26-0.08,0.54,0.07,0.62,0.34c0.08,0.27-0.07,0.54-0.34,0.62c-2.55,0.75-5.14,1.47-7.72,2.14
		C503.91,175.98,503.87,175.98,503.83,175.98z M1088.89,174.07c-0.1,0-0.21-0.03-0.3-0.1l-6.44-4.75c-0.22-0.16-0.27-0.48-0.11-0.7
		c0.16-0.22,0.48-0.27,0.7-0.11l6.44,4.75c0.22,0.16,0.27,0.48,0.11,0.7C1089.2,174,1089.05,174.07,1088.89,174.07z M345.89,173.07
		c-0.05,0-0.1-0.01-0.15-0.02c-2.55-0.79-5.11-1.62-7.62-2.48c-0.26-0.09-0.4-0.37-0.31-0.63c0.09-0.26,0.38-0.4,0.63-0.31
		c2.5,0.85,5.05,1.69,7.59,2.47c0.26,0.08,0.41,0.36,0.33,0.62C346.3,172.93,346.1,173.07,345.89,173.07z M333.26,170.62
		c-0.05,0-0.09-0.01-0.14-0.02c-0.27-0.08-0.42-0.36-0.34-0.62c0.75-2.54,1.39-5.14,1.89-7.72c0.05-0.27,0.32-0.45,0.59-0.4
		c0.27,0.05,0.45,0.31,0.4,0.59c-0.5,2.61-1.15,5.24-1.91,7.81C333.68,170.48,333.48,170.62,333.26,170.62z M30.73,168.89
		c-0.14,0-0.28-0.06-0.38-0.17c-1.41-1.65-2.8-3.34-4.12-5.04c-0.31-0.4-0.62-0.8-0.93-1.2c-0.17-0.22-0.12-0.53,0.1-0.7
		c0.22-0.17,0.53-0.12,0.7,0.1c0.3,0.4,0.61,0.8,0.92,1.19c1.31,1.68,2.69,3.37,4.09,5c0.18,0.21,0.16,0.53-0.05,0.71
		C30.96,168.85,30.85,168.89,30.73,168.89z M530.52,167.55c-0.2,0-0.39-0.12-0.47-0.33c-0.1-0.26,0.04-0.55,0.29-0.64
		c2.49-0.93,5-1.9,7.45-2.88c0.26-0.1,0.55,0.02,0.65,0.28c0.1,0.26-0.02,0.55-0.28,0.65c-2.46,0.99-4.97,1.97-7.47,2.89
		C530.63,167.54,530.57,167.55,530.52,167.55z M1313.18,163.97c-0.04,0-0.08,0-0.12-0.01c-0.27-0.07-0.43-0.34-0.37-0.6
		c0.62-2.54,1.16-5.17,1.61-7.8c0.05-0.27,0.3-0.45,0.58-0.41c0.27,0.05,0.46,0.3,0.41,0.58c-0.45,2.66-1,5.3-1.62,7.87
		C1313.61,163.82,1313.41,163.97,1313.18,163.97z M319.62,163.43c-0.07,0-0.13-0.01-0.2-0.04c-2.45-1.05-4.91-2.15-7.32-3.27
		c-0.25-0.12-0.36-0.41-0.24-0.66c0.12-0.25,0.41-0.36,0.66-0.24c2.4,1.12,4.85,2.21,7.29,3.26c0.25,0.11,0.37,0.4,0.26,0.66
		C320,163.31,319.81,163.43,319.62,163.43z M1066.28,157.55c-0.1,0-0.2-0.03-0.29-0.09c-2.17-1.55-4.35-3.09-6.53-4.61
		c-0.23-0.16-0.28-0.47-0.12-0.7c0.16-0.23,0.47-0.28,0.7-0.12c2.19,1.52,4.37,3.06,6.54,4.61c0.22,0.16,0.28,0.47,0.12,0.7
		C1066.59,157.47,1066.44,157.55,1066.28,157.55z M556.23,156.51c-0.19,0-0.36-0.1-0.45-0.28c-0.12-0.25-0.02-0.55,0.23-0.67
		c2.38-1.17,4.77-2.39,7.11-3.62c0.24-0.13,0.55-0.04,0.68,0.21c0.13,0.24,0.04,0.55-0.21,0.68c-2.35,1.24-4.75,2.46-7.14,3.64
		C556.38,156.49,556.31,156.51,556.23,156.51z M294.89,150.4c-0.1,0-0.21-0.03-0.29-0.1c-2.3-1.67-4.38-3.41-6.18-5.18
		c-0.2-0.19-0.2-0.51-0.01-0.71c0.19-0.2,0.51-0.2,0.71-0.01c1.77,1.73,3.82,3.44,6.07,5.09c0.22,0.16,0.27,0.48,0.11,0.7
		C295.19,150.33,295.04,150.4,294.89,150.4z M14.98,145.81c-0.18,0-0.35-0.1-0.44-0.27c-1.24-2.36-2.42-4.79-3.51-7.23
		c-0.11-0.25,0-0.55,0.25-0.66c0.25-0.11,0.55,0,0.66,0.25c1.07,2.41,2.24,4.83,3.48,7.17c0.13,0.24,0.03,0.55-0.21,0.68
		C15.14,145.79,15.06,145.81,14.98,145.81z M336.34,142.95c-0.26,0-0.47-0.2-0.5-0.46c-0.23-2.68-0.64-5.32-1.21-7.84
		c-0.06-0.27,0.11-0.54,0.38-0.6c0.27-0.06,0.54,0.11,0.6,0.38c0.58,2.56,0.99,5.25,1.23,7.97c0.02,0.27-0.18,0.52-0.45,0.54
		C336.37,142.95,336.36,142.95,336.34,142.95z M580.68,142.89c-0.17,0-0.33-0.08-0.42-0.23c-0.15-0.23-0.08-0.54,0.16-0.69
		c2.25-1.41,4.5-2.88,6.7-4.35c0.23-0.15,0.54-0.09,0.69,0.14c0.15,0.23,0.09,0.54-0.14,0.69c-2.2,1.48-4.46,2.95-6.72,4.37
		C580.86,142.86,580.77,142.89,580.68,142.89z M1043.09,141.86c-0.09,0-0.18-0.02-0.27-0.08c-2.24-1.41-4.52-2.83-6.8-4.2
		c-0.24-0.14-0.31-0.45-0.17-0.69c0.14-0.24,0.45-0.31,0.69-0.17c2.28,1.38,4.57,2.79,6.81,4.21c0.23,0.15,0.3,0.46,0.16,0.69
		C1043.42,141.78,1043.26,141.86,1043.09,141.86z M1316.5,136.23C1316.5,136.23,1316.5,136.23,1316.5,136.23
		c-0.28,0-0.5-0.23-0.5-0.5l0-0.79c0-2.38-0.07-4.79-0.2-7.17c-0.02-0.28,0.2-0.51,0.47-0.53c0.27-0.02,0.51,0.2,0.53,0.47
		c0.13,2.4,0.2,4.83,0.2,7.23l0,0.8C1317,136,1316.78,136.23,1316.5,136.23z M797.09,133.66c-1.92,0-3.82-0.17-5.64-0.5
		c-0.27-0.05-0.45-0.31-0.4-0.58c0.05-0.27,0.31-0.45,0.58-0.4c1.76,0.32,3.6,0.49,5.46,0.49c0.8,0.03,1.59-0.03,2.38-0.09
		c0.28-0.03,0.52,0.19,0.54,0.46c0.02,0.28-0.19,0.52-0.46,0.54C798.73,133.63,797.91,133.66,797.09,133.66
		C797.1,133.66,797.09,133.66,797.09,133.66z M279.59,127.99c-0.26,0-0.48-0.2-0.5-0.46c-0.04-0.53-0.06-1.06-0.06-1.6
		c0-0.96,0.07-1.93,0.2-2.89c0.17-1.23,0.46-2.44,0.86-3.59c0.09-0.26,0.38-0.4,0.64-0.31c0.26,0.09,0.4,0.38,0.31,0.64
		c-0.38,1.09-0.65,2.23-0.81,3.4c-0.13,0.92-0.19,1.85-0.19,2.76c0,0.51,0.02,1.02,0.06,1.52c0.02,0.27-0.19,0.52-0.46,0.54
		C279.62,127.99,279.61,127.99,279.59,127.99z M1018.93,127.73c-0.08,0-0.16-0.02-0.24-0.06c-2.32-1.25-4.7-2.51-7.07-3.73
		c-0.25-0.13-0.34-0.43-0.22-0.67c0.13-0.25,0.43-0.34,0.67-0.22c2.37,1.22,4.76,2.48,7.08,3.74c0.24,0.13,0.33,0.43,0.2,0.68
		C1019.28,127.63,1019.11,127.73,1018.93,127.73z M603.56,126.77c-0.15,0-0.3-0.07-0.4-0.19c-0.17-0.22-0.13-0.53,0.09-0.7
		c2.01-1.56,4.11-3.23,6.26-4.97c0.21-0.17,0.53-0.14,0.7,0.07c0.17,0.21,0.14,0.53-0.07,0.7c-2.15,1.74-4.26,3.42-6.27,4.98
		C603.78,126.74,603.67,126.77,603.56,126.77z M817.93,126.54c-0.15,0-0.29-0.07-0.39-0.19c-0.17-0.22-0.13-0.53,0.08-0.7
		c2.11-1.67,3.93-3.57,5.41-5.66c0.16-0.23,0.47-0.28,0.7-0.12c0.23,0.16,0.28,0.47,0.12,0.7c-1.54,2.17-3.43,4.14-5.61,5.86
		C818.14,126.5,818.04,126.54,817.93,126.54z M775.25,122.56c-0.13,0-0.27-0.05-0.37-0.16c-1.85-2.01-3.21-4.4-4.04-7.08
		c-0.08-0.26,0.07-0.54,0.33-0.62c0.26-0.08,0.54,0.07,0.62,0.33c0.78,2.54,2.07,4.8,3.82,6.7c0.19,0.2,0.17,0.52-0.03,0.71
		C775.49,122.52,775.37,122.56,775.25,122.56z M4.91,119.75c-0.22,0-0.43-0.15-0.48-0.38c-0.67-2.6-1.24-5.24-1.72-7.85
		c-0.05-0.27,0.13-0.53,0.4-0.58c0.27-0.05,0.53,0.13,0.58,0.4c0.47,2.58,1.04,5.2,1.7,7.78c0.07,0.27-0.09,0.54-0.36,0.61
		C4.99,119.74,4.95,119.75,4.91,119.75z M326.93,116.99c-0.15,0-0.3-0.07-0.39-0.19c-1.65-2.11-3.51-3.99-5.53-5.59
		c-0.22-0.17-0.25-0.49-0.08-0.7c0.17-0.22,0.49-0.25,0.7-0.08c2.08,1.65,4,3.58,5.7,5.75c0.17,0.22,0.13,0.53-0.08,0.7
		C327.15,116.95,327.04,116.99,326.93,116.99z M993.86,115.26c-0.07,0-0.14-0.01-0.21-0.04c-2.42-1.1-4.87-2.2-7.3-3.25
		c-0.25-0.11-0.37-0.4-0.26-0.66c0.11-0.25,0.41-0.37,0.66-0.26c2.43,1.06,4.9,2.15,7.32,3.26c0.25,0.11,0.36,0.41,0.25,0.66
		C994.24,115.15,994.05,115.26,993.86,115.26z M625.15,108.94c-0.14,0-0.28-0.06-0.38-0.17c-0.18-0.21-0.16-0.53,0.05-0.71
		c2.02-1.74,4.04-3.48,6.05-5.23c0.21-0.18,0.52-0.16,0.71,0.05c0.18,0.21,0.16,0.52-0.05,0.71c-2.02,1.75-4.03,3.49-6.05,5.23
		C625.38,108.9,625.26,108.94,625.15,108.94z M1313.76,108.41c-0.23,0-0.44-0.16-0.49-0.4c-0.41-2-0.87-4.02-1.37-5.99
		c-0.15-0.59-0.3-1.18-0.46-1.77c-0.07-0.27,0.09-0.54,0.36-0.61c0.27-0.07,0.54,0.09,0.61,0.36c0.16,0.59,0.31,1.18,0.46,1.78
		c0.5,1.99,0.96,4.02,1.38,6.04c0.06,0.27-0.12,0.53-0.39,0.59C1313.83,108.41,1313.79,108.41,1313.76,108.41z M294.82,107.1
		c-0.21,0-0.4-0.13-0.47-0.34c-0.09-0.26,0.05-0.54,0.31-0.63c2.55-0.86,5.23-1.39,7.96-1.55c0.27-0.02,0.51,0.19,0.53,0.47
		c0.02,0.28-0.19,0.51-0.47,0.53c-2.64,0.16-5.23,0.67-7.7,1.5C294.93,107.09,294.88,107.1,294.82,107.1z M968.02,104.49
		c-0.06,0-0.12-0.01-0.18-0.03c-2.47-0.93-4.99-1.86-7.5-2.76c-0.26-0.09-0.4-0.38-0.3-0.64c0.09-0.26,0.38-0.4,0.64-0.3
		c2.52,0.9,5.05,1.83,7.52,2.76c0.26,0.1,0.39,0.39,0.29,0.64C968.42,104.37,968.22,104.49,968.02,104.49z M829.77,102.07
		c-0.01,0-0.02,0-0.03,0c-0.28-0.02-0.48-0.26-0.47-0.53c0.06-0.92,0.09-1.86,0.09-2.8c0-1.67-0.1-3.39-0.29-5.09
		c-0.03-0.27,0.17-0.52,0.44-0.55c0.28-0.03,0.52,0.17,0.55,0.44c0.19,1.74,0.29,3.49,0.29,5.21c0,0.96-0.03,1.93-0.09,2.87
		C830.25,101.87,830.03,102.07,829.77,102.07z M773.76,96.31c-0.08,0-0.16-0.02-0.23-0.06c-0.24-0.13-0.34-0.43-0.21-0.67
		c1.28-2.44,2.85-4.67,4.68-6.63c0.19-0.2,0.51-0.21,0.71-0.02c0.2,0.19,0.21,0.5,0.02,0.71c-1.76,1.89-3.28,4.05-4.52,6.41
		C774.11,96.21,773.94,96.31,773.76,96.31z M941.52,95.46c-0.05,0-0.1-0.01-0.15-0.02c-2.53-0.77-5.11-1.53-7.67-2.25
		c-0.27-0.08-0.42-0.35-0.34-0.62c0.08-0.26,0.35-0.42,0.62-0.34c2.56,0.73,5.14,1.49,7.68,2.26c0.26,0.08,0.41,0.36,0.33,0.62
		C941.94,95.33,941.74,95.46,941.52,95.46z M1.49,92.04C1.49,92.04,1.49,92.04,1.49,92.04c-0.28,0-0.5-0.23-0.5-0.51
		c0.04-2.69,0.18-5.39,0.44-8.03c0.03-0.27,0.27-0.47,0.55-0.45c0.27,0.03,0.48,0.27,0.45,0.55c-0.26,2.61-0.4,5.28-0.44,7.94
		C1.99,91.82,1.77,92.04,1.49,92.04z M646.35,90.65c-0.14,0-0.28-0.06-0.38-0.18c-0.18-0.21-0.15-0.53,0.06-0.71
		c2.04-1.73,4.08-3.45,6.13-5.15c0.21-0.18,0.53-0.15,0.7,0.07c0.18,0.21,0.15,0.53-0.07,0.7c-2.05,1.7-4.09,3.41-6.12,5.14
		C646.58,90.61,646.46,90.65,646.35,90.65z M914.49,88.21c-0.04,0-0.08,0-0.11-0.01c-2.59-0.6-5.21-1.19-7.8-1.74
		c-0.27-0.06-0.44-0.32-0.39-0.59c0.06-0.27,0.32-0.45,0.59-0.38c2.6,0.55,5.23,1.14,7.82,1.74c0.27,0.06,0.44,0.33,0.37,0.6
		C914.92,88.05,914.71,88.21,914.49,88.21z M887.03,82.76c-0.03,0-0.05,0-0.08-0.01c-2.6-0.43-5.26-0.84-7.9-1.22
		c-0.27-0.04-0.46-0.29-0.42-0.57c0.04-0.27,0.29-0.47,0.57-0.42c2.64,0.38,5.3,0.79,7.92,1.22c0.27,0.04,0.46,0.3,0.41,0.57
		C887.48,82.59,887.27,82.76,887.03,82.76z M1305.73,81.62c-0.2,0-0.39-0.12-0.47-0.32c-0.94-2.43-1.96-4.92-3.03-7.38
		c-0.11-0.25,0.01-0.55,0.26-0.66c0.25-0.11,0.55,0.01,0.66,0.26c1.07,2.48,2.09,4.97,3.04,7.42c0.1,0.26-0.03,0.55-0.29,0.65
		C1305.85,81.61,1305.79,81.62,1305.73,81.62z M795.55,80.05c-0.22,0-0.42-0.14-0.48-0.36c-0.08-0.27,0.08-0.54,0.34-0.62
		c2.43-0.7,5.08-1.26,7.88-1.69c0.27-0.04,0.53,0.15,0.57,0.42c0.04,0.27-0.15,0.53-0.42,0.57c-2.76,0.42-5.36,0.98-7.76,1.66
		C795.64,80.05,795.6,80.05,795.55,80.05z M859.26,79.16c-0.02,0-0.03,0-0.05,0c-2.65-0.25-5.33-0.48-7.96-0.68
		c-0.28-0.02-0.48-0.26-0.46-0.54s0.25-0.49,0.54-0.46c2.64,0.2,5.33,0.43,7.98,0.69c0.27,0.03,0.48,0.27,0.45,0.55
		C859.74,78.97,859.52,79.16,859.26,79.16z M831.32,77.44c0,0-0.01,0-0.01,0c-2.65-0.07-5.34-0.12-7.99-0.14
		c-0.28,0-0.5-0.23-0.5-0.5c0-0.28,0.25-0.48,0.5-0.5c2.66,0.02,5.35,0.07,8.01,0.14c0.28,0.01,0.49,0.24,0.49,0.51
		C831.81,77.23,831.59,77.44,831.32,77.44z M823.64,75.1c-0.18,0-0.35-0.1-0.44-0.27c-1.24-2.35-2.64-4.61-4.19-6.73
		c-0.16-0.22-0.11-0.54,0.11-0.7c0.22-0.16,0.54-0.11,0.7,0.11c1.57,2.16,3,4.46,4.26,6.85c0.13,0.24,0.04,0.55-0.21,0.68
		C823.8,75.09,823.72,75.1,823.64,75.1z M668.16,73.1c-0.15,0-0.3-0.07-0.4-0.2c-0.17-0.22-0.12-0.53,0.1-0.7
		c2.2-1.64,4.38-3.22,6.49-4.71c0.23-0.16,0.54-0.1,0.7,0.12c0.16,0.23,0.1,0.54-0.12,0.7c-2.1,1.48-4.28,3.05-6.46,4.69
		C668.37,73.07,668.27,73.1,668.16,73.1z M6.13,64.54c-0.05,0-0.11-0.01-0.16-0.03c-0.26-0.09-0.4-0.37-0.31-0.64
		c0.87-2.54,1.87-5.06,2.98-7.47c0.11-0.25,0.41-0.36,0.66-0.25c0.25,0.11,0.36,0.41,0.25,0.66c-1.09,2.39-2.08,4.87-2.94,7.38
		C6.53,64.41,6.33,64.54,6.13,64.54z M691.47,57.63c-0.17,0-0.34-0.09-0.43-0.25c-0.14-0.24-0.05-0.55,0.18-0.68
		c2.24-1.28,4.5-2.52,6.72-3.67l0.33-0.17c0.25-0.13,0.55-0.03,0.67,0.22c0.13,0.25,0.03,0.55-0.22,0.67l-0.32,0.17
		c-2.21,1.15-4.46,2.38-6.68,3.65C691.64,57.61,691.56,57.63,691.47,57.63z M1294,56.22c-0.18,0-0.35-0.1-0.44-0.27
		c-1.22-2.29-2.51-4.65-3.84-7c-0.14-0.24-0.05-0.55,0.19-0.68c0.24-0.14,0.55-0.05,0.68,0.19c1.34,2.37,2.63,4.73,3.85,7.03
		c0.13,0.24,0.04,0.55-0.21,0.68C1294.16,56.2,1294.08,56.22,1294,56.22z M805.27,54.3c-0.1,0-0.2-0.03-0.29-0.1
		c-2.11-1.53-4.36-2.97-6.69-4.27c-0.24-0.13-0.33-0.44-0.19-0.68c0.13-0.24,0.44-0.33,0.68-0.19c2.36,1.32,4.64,2.78,6.78,4.34
		c0.22,0.16,0.27,0.48,0.11,0.7C805.58,54.22,805.43,54.3,805.27,54.3z M716.93,46.09c-0.21,0-0.41-0.13-0.48-0.34
		c-0.09-0.26,0.06-0.54,0.32-0.63c2.53-0.83,5.12-1.6,7.7-2.28c0.27-0.07,0.54,0.09,0.61,0.36c0.07,0.27-0.09,0.54-0.36,0.61
		c-2.56,0.67-5.13,1.43-7.64,2.26C717.04,46.09,716.98,46.09,716.93,46.09z M780,42.65c-0.04,0-0.08,0-0.12-0.02
		c-2.52-0.65-5.14-1.2-7.78-1.63c-0.27-0.04-0.46-0.3-0.41-0.57c0.04-0.27,0.3-0.47,0.57-0.41c2.67,0.44,5.32,0.99,7.87,1.65
		c0.27,0.07,0.43,0.34,0.36,0.61C780.43,42.5,780.22,42.65,780,42.65z M744.26,40.27c-0.25,0-0.47-0.19-0.5-0.45
		c-0.03-0.27,0.17-0.52,0.45-0.55c2.68-0.26,5.38-0.44,8.02-0.52c0.31-0.04,0.51,0.21,0.51,0.48c0.01,0.28-0.21,0.51-0.48,0.52
		c-2.61,0.08-5.29,0.25-7.95,0.51C744.3,40.27,744.28,40.27,744.26,40.27z M1279.86,32.06c-0.17,0-0.33-0.08-0.42-0.23
		c-1.42-2.25-2.86-4.49-4.32-6.73c-0.15-0.23-0.09-0.54,0.15-0.69c0.23-0.15,0.54-0.08,0.69,0.15c1.46,2.24,2.9,4.48,4.33,6.74
		c0.15,0.23,0.08,0.54-0.16,0.69C1280.04,32.03,1279.95,32.06,1279.86,32.06z M1264.42,8.7c-0.16,0-0.32-0.08-0.41-0.22
		c-1.5-2.21-3.01-4.41-4.51-6.61c-0.16-0.23-0.1-0.54,0.13-0.69c0.23-0.16,0.54-0.1,0.69,0.13c1.5,2.2,3.01,4.4,4.51,6.61
		c0.16,0.23,0.1,0.54-0.13,0.69C1264.62,8.67,1264.52,8.7,1264.42,8.7z"/>
</g>
</svg>
