<?xml version="1.0" encoding="utf-8"?>
<!-- Generator: Adobe Illustrator 26.1.0, SVG Export Plug-In . SVG Version: 6.00 Build 0)  -->
<svg version="1.1" id="Capa_1" xmlns="http://www.w3.org/2000/svg" xmlns:xlink="http://www.w3.org/1999/xlink" x="0px" y="0px"
	 viewBox="0 0 222 63" style="enable-background:new 0 0 222 63;" xml:space="preserve">
<style type="text/css">
	.st0{fill:#752400;}
	.st1{fill:#F9B500;}
	.st2{fill:url(#);}
	.st3{fill:none;stroke:#AEBFC2;stroke-miterlimit:10;}
	.st4{fill:#AEBFC2;}
	.st5{fill:url(#SVGID_1_);}
	.st6{fill:#FCC51D;}
	.st7{fill:#FFE632;}
	.st8{fill:none;stroke:#003743;stroke-width:17;stroke-miterlimit:10;}
	.st9{fill:#003743;}
	.st10{fill:none;stroke:#003743;stroke-width:20;stroke-linecap:round;stroke-linejoin:round;stroke-miterlimit:10;}
	.st11{fill:none;stroke:#003743;stroke-width:19;stroke-linecap:round;stroke-linejoin:round;stroke-miterlimit:10;}
	.st12{fill:none;stroke:#003743;stroke-width:21;stroke-linecap:round;stroke-linejoin:round;stroke-miterlimit:10;}
	.st13{fill:#002434;}
	.st14{fill:url(#SVGID_00000091717447683371169950000006772273244207041957_);}
	.st15{fill:#FE009D;}
	.st16{fill:url(#SVGID_00000138535053519705307210000001393856293400005520_);}
	.st17{fill:none;stroke:#F5A52B;stroke-width:1.4883;stroke-miterlimit:10;}
	.st18{fill:#FFD000;}
	.st19{fill:none;stroke:#003743;stroke-width:4.3631;stroke-miterlimit:10;}
	.st20{fill:none;stroke:#003743;stroke-width:5.1331;stroke-linecap:round;stroke-linejoin:round;stroke-miterlimit:10;}
	.st21{fill:none;stroke:#003743;stroke-width:4.8764;stroke-linecap:round;stroke-linejoin:round;stroke-miterlimit:10;}
	.st22{fill:none;stroke:#003743;stroke-width:5.3897;stroke-linecap:round;stroke-linejoin:round;stroke-miterlimit:10;}
	.st23{fill:none;stroke:#003743;stroke-width:4.1065;stroke-linecap:round;stroke-linejoin:round;stroke-miterlimit:10;}
	.st24{fill:#003643;}
	.st25{opacity:0.17;}
	.st26{fill:none;stroke:#FFFFFF;stroke-width:2;stroke-miterlimit:10;}
	.st27{fill:#F49C2C;}
	.st28{fill:#F5A52B;}
	.st29{fill:#FEDE9D;}
	.st30{fill:#FFC91C;}
	.st31{fill:#00A88F;}
	.st32{fill:#FFCD8C;}
	.st33{fill:#F3A42B;}
	.st34{fill:none;stroke:#FCC51D;stroke-width:2.931;stroke-linecap:round;stroke-linejoin:round;stroke-miterlimit:10;}
	.st35{fill:#FFFFFF;}
	.st36{fill:#2E2C2F;}
	.st37{fill:#EA4335;}
	.st38{fill:#FBBC04;}
	.st39{fill:#4285F4;}
	.st40{fill:#34A853;}
	.st41{fill:none;stroke:#FEDE9D;stroke-linecap:round;stroke-linejoin:round;stroke-miterlimit:10;stroke-dasharray:8,20;}
	.st42{fill:none;stroke:#FEDE9D;stroke-width:1.5;stroke-linecap:round;stroke-linejoin:round;stroke-miterlimit:10;}
	.st43{fill:url(#SVGID_00000136374334440760165470000011766499929126237070_);}
	.st44{fill:#FF16FF;}
	.st45{fill:none;stroke:#FF16FF;stroke-width:4;stroke-miterlimit:10;}
	.st46{fill:#FF6DFF;}
	.st47{opacity:0.72;fill:#FFFFFF;}
	.st48{fill:#FFE300;}
	.st49{fill:#FCB41D;}
	.st50{fill:none;stroke:#752400;stroke-width:6.0764;stroke-linecap:round;stroke-linejoin:round;stroke-miterlimit:10;}
	.st51{fill:none;stroke:#752400;stroke-width:4.81;stroke-linecap:round;stroke-linejoin:round;stroke-miterlimit:10;}
	.st52{fill:none;stroke:#DD24FF;stroke-width:0.2509;stroke-miterlimit:10;}
	.st53{fill:none;stroke:#DD24FF;stroke-width:0.1774;stroke-miterlimit:10;}
	.st54{fill:none;stroke:#DD24FF;stroke-width:0.1255;stroke-miterlimit:10;}
	.st55{fill:none;stroke:#DD24FF;stroke-width:0.433;stroke-miterlimit:10;}
	.st56{fill:none;stroke:#DD24FF;stroke-width:0.1768;stroke-miterlimit:10;}
	.st57{clip-path:url(#SVGID_00000038383251275404265660000002257115831649737862_);}
	.st58{fill:none;stroke:#F5BF2B;stroke-width:2.4797;stroke-miterlimit:10;}
	.st59{clip-path:url(#SVGID_00000086664409367245643490000008334654151662550411_);}
	.st60{fill:none;stroke:#003947;stroke-width:2.4797;stroke-miterlimit:10;}
</style>
<g>
	<g>
		<path class="st6" d="M87.85,41.98c-0.68-2.08-1.34-4.08-1.99-6c-0.65-1.92-1.26-3.62-1.83-5.11c-0.19-0.59-0.67-1.03-1.44-1.3
			c-0.77-0.27-1.62-0.41-2.53-0.41c-0.7,0-1.39,0.08-2.07,0.24c-0.68,0.16-1.18,0.34-1.5,0.53c-0.38,0.95-0.83,2.12-1.34,3.51
			s-1.06,2.89-1.64,4.48c-0.58,1.6-1.14,3.18-1.68,4.75c-0.54,1.57-1.04,3.02-1.5,4.36c-0.46,1.34-0.83,2.45-1.1,3.35
			c-0.11,0.41-0.21,0.77-0.3,1.1c-0.09,0.32-0.14,0.64-0.14,0.93c0,0.68,0.25,1.18,0.75,1.52c0.5,0.34,1.18,0.51,2.05,0.51
			c0.43,0,0.8-0.03,1.12-0.1c0.31-0.07,0.6-0.14,0.87-0.22c0.13-0.43,0.29-0.93,0.47-1.5c0.18-0.57,0.37-1.17,0.57-1.81
			c0.2-0.63,0.39-1.26,0.57-1.89c0.07-0.25,0.14-0.49,0.21-0.73h9.17l1.31,4.18c0.22,0.7,0.52,1.22,0.91,1.56
			c0.39,0.34,1.03,0.51,1.93,0.51c0.62,0,1.17-0.1,1.64-0.28c0.47-0.19,0.84-0.43,1.12-0.73c-0.49-1.6-1.04-3.38-1.66-5.35
			C89.17,46.09,88.53,44.06,87.85,41.98z M77.55,40.83c0.46-1.34,0.9-2.63,1.32-3.87c0.42-1.24,0.8-2.35,1.16-3.33h0.2
			c0.27,0.84,0.59,1.84,0.97,3c0.38,1.16,0.78,2.41,1.2,3.75c0.39,1.25,0.79,2.51,1.19,3.79h-7.16
			C76.78,43.09,77.15,41.98,77.55,40.83z"/>
		<path class="st6" d="M108.7,35.35c-1.54-0.69-3.3-1.03-5.27-1.03c-1.46,0-2.77,0.17-3.93,0.51c-1.16,0.34-2.14,0.74-2.92,1.2
			c-0.57,0.35-0.97,0.73-1.22,1.14c-0.24,0.41-0.37,0.92-0.37,1.54v11.88V52v7.3c0,0.87,0.22,1.47,0.67,1.83
			c0.45,0.35,1.13,0.53,2.05,0.53c0.49,0,0.93-0.03,1.34-0.1c0.41-0.07,0.72-0.14,0.93-0.22v-7.53c0.34,0.15,0.71,0.28,1.12,0.42
			c0.88,0.28,1.86,0.43,2.94,0.43c1.87,0,3.52-0.39,4.97-1.16c1.45-0.77,2.58-1.91,3.41-3.43c0.82-1.51,1.24-3.41,1.24-5.68
			c0-2.35-0.44-4.27-1.32-5.76C111.45,37.13,110.24,36.04,108.7,35.35z M107.16,49.1c-0.95,1.01-2.23,1.52-3.85,1.52
			c-0.97,0-1.82-0.17-2.54-0.51c-0.28-0.13-0.54-0.28-0.79-0.43v-10.5c0.41-0.24,0.89-0.45,1.46-0.63s1.23-0.26,1.99-0.26
			c0.97,0,1.85,0.2,2.64,0.61c0.78,0.41,1.4,1.05,1.85,1.93c0.45,0.88,0.67,2.06,0.67,3.55C108.58,46.51,108.1,48.09,107.16,49.1z"
			/>
		<path class="st6" d="M120.58,26.37c-0.84,0-1.53,0.27-2.09,0.81c-0.55,0.54-0.83,1.2-0.83,1.99c0,0.76,0.28,1.41,0.83,1.97
			c0.55,0.55,1.25,0.83,2.09,0.83c0.87,0,1.56-0.28,2.09-0.83c0.53-0.55,0.79-1.21,0.79-1.97c0-0.78-0.26-1.45-0.79-1.99
			C122.14,26.64,121.45,26.37,120.58,26.37z"/>
		<path class="st6" d="M120.38,34.72c-0.49,0-0.94,0.03-1.36,0.1c-0.42,0.07-0.74,0.14-0.95,0.22v8.31v2.55V52
			c0,0.87,0.23,1.47,0.69,1.8c0.46,0.34,1.15,0.51,2.07,0.51c0.49,0,0.93-0.03,1.34-0.1c0.41-0.07,0.72-0.14,0.93-0.22v-8.07v-2.55
			v-6.29c0-0.89-0.22-1.51-0.65-1.85C122.01,34.89,121.32,34.72,120.38,34.72z"/>
		<path class="st6" d="M146.46,30.28c-0.11-0.37-0.23-0.64-0.37-0.83h-7.67h-3.73h-6.29c-0.57,0-1.01,0.18-1.34,0.53
			c-0.32,0.35-0.49,0.89-0.49,1.62c0,0.43,0.05,0.83,0.16,1.18c0.11,0.35,0.23,0.64,0.36,0.85h6.9v18.29c0,0.87,0.21,1.48,0.63,1.85
			c0.42,0.37,1.13,0.55,2.13,0.55c0.46,0,0.91-0.03,1.36-0.1c0.45-0.07,0.78-0.14,0.99-0.22V33.63h5.68c0.57,0,1.01-0.19,1.34-0.57
			c0.32-0.38,0.49-0.92,0.49-1.62C146.62,31.03,146.56,30.65,146.46,30.28z"/>
		<path class="st6" d="M160.87,35.39c-1.34-0.72-2.9-1.07-4.68-1.07c-1.27,0-2.49,0.21-3.65,0.63c-1.16,0.42-2.18,1.04-3.06,1.87
			c-0.88,0.83-1.58,1.86-2.09,3.1c-0.51,1.24-0.77,2.69-0.77,4.34c0,2.3,0.45,4.22,1.36,5.76c0.91,1.54,2.16,2.7,3.77,3.47
			c1.61,0.77,3.45,1.16,5.54,1.16c1.35,0,2.56-0.14,3.61-0.41c1.05-0.27,1.89-0.66,2.51-1.16c0.62-0.5,0.93-1.1,0.93-1.8
			c0-0.43-0.12-0.83-0.34-1.2c-0.23-0.36-0.53-0.67-0.91-0.91c-0.57,0.41-1.34,0.78-2.31,1.12c-0.97,0.34-2.03,0.51-3.16,0.51
			c-1.68,0-3.06-0.41-4.16-1.22c-0.87-0.65-1.46-1.6-1.79-2.83l11.31-1.63c0.7-0.08,1.25-0.3,1.64-0.67
			c0.39-0.37,0.59-0.93,0.59-1.68c0-1.65-0.39-3.11-1.16-4.38C163.27,37.1,162.21,36.11,160.87,35.39z M151.35,43.26
			c0.09-1.59,0.54-2.84,1.39-3.73c0.92-0.96,2.07-1.44,3.45-1.44c1.35,0,2.38,0.38,3.08,1.14c0.7,0.76,1.1,1.65,1.18,2.68
			L151.35,43.26z"/>
		<path class="st6" d="M183.36,49.4c-0.51,0.3-1.12,0.57-1.81,0.83c-0.69,0.26-1.53,0.39-2.53,0.39c-1.68,0-3.04-0.51-4.1-1.54
			c-1.05-1.03-1.58-2.54-1.58-4.54c0-2.03,0.55-3.57,1.64-4.62c1.1-1.05,2.45-1.58,4.08-1.58c0.95,0,1.76,0.12,2.43,0.36
			c0.68,0.24,1.28,0.53,1.83,0.85c0.3-0.22,0.55-0.5,0.77-0.85c0.22-0.35,0.32-0.73,0.32-1.14c0-0.92-0.54-1.69-1.62-2.31
			c-1.08-0.62-2.51-0.93-4.3-0.93c-1.87,0-3.58,0.37-5.13,1.12c-1.56,0.74-2.8,1.87-3.73,3.39c-0.93,1.51-1.4,3.42-1.4,5.72
			c0,2.22,0.44,4.08,1.32,5.6c0.88,1.51,2.1,2.64,3.65,3.39c1.55,0.74,3.36,1.12,5.41,1.12c1.81,0,3.27-0.29,4.38-0.87
			c1.11-0.58,1.66-1.33,1.66-2.25c0-0.49-0.12-0.9-0.34-1.24C184.09,49.94,183.77,49.65,183.36,49.4z"/>
		<path class="st6" d="M204.39,36.22c-1.47-1.27-3.43-1.91-5.86-1.91c-1.22,0-2.31,0.18-3.29,0.55c-0.51,0.19-0.97,0.38-1.38,0.58
			v-5.75c0-0.87-0.22-1.47-0.65-1.81c-0.43-0.34-1.12-0.51-2.07-0.51c-0.49,0-0.93,0.04-1.34,0.12c-0.41,0.08-0.72,0.15-0.93,0.2
			v15.66v2.55V52c0,0.87,0.22,1.47,0.67,1.8c0.45,0.34,1.13,0.51,2.05,0.51c0.49,0,0.93-0.03,1.34-0.1
			c0.41-0.07,0.72-0.14,0.93-0.22v-8.07v-2.55v-3.84c0.39-0.25,0.81-0.49,1.28-0.71c0.77-0.35,1.62-0.53,2.54-0.53
			c1.14,0,2.07,0.31,2.82,0.93c0.74,0.62,1.12,1.62,1.12,3v1.18v2.47V52c0,0.87,0.22,1.47,0.65,1.8c0.43,0.34,1.12,0.51,2.07,0.51
			c0.46,0,0.9-0.03,1.32-0.1c0.42-0.07,0.74-0.14,0.95-0.22v-8.11V43.4v-1.42C206.6,39.41,205.86,37.49,204.39,36.22z"/>
	</g>
	<g>
		<path class="st6" d="M4.69,56.97c-0.64,0-1.23-0.25-1.66-0.69C1.7,54.9,2.62,53.2,3.44,51.69c0.95-1.77,2.26-4.18,1.6-6.92
			c-0.79-2.11-1.14-4.37-1.05-6.71c0.19-4.68,2.18-9.14,5.6-12.56c3.56-3.56,8.4-5.6,13.28-5.6c4.51,0,8.68,1.7,11.77,4.78
			c6.68,6.68,6.31,17.91-0.82,25.05c-3.42,3.42-7.88,5.41-12.56,5.6c-0.25,0.01-0.49,0.02-0.74,0.02c-1.86,0-3.68-0.29-5.4-0.87
			c-0.69-0.14-1.37-0.21-2.04-0.21c-2.55,0-4.46,1.03-5.85,1.79C6.27,56.56,5.52,56.97,4.69,56.97z"/>
		
			<ellipse transform="matrix(0.7071 -0.7071 0.7071 0.7071 -20.2446 26.3603)" class="st6" cx="21.7" cy="37.62" rx="14.9" ry="13.74"/>
		<path class="st7" d="M36.02,36.48c-0.62-1.38-1.49-2.67-2.62-3.79c-5.36-5.37-14.43-5-20.25,0.82c-3.06,3.06-4.61,7.01-4.62,10.85
			C6.18,39.13,7.37,32.5,11.98,27.9c5.82-5.82,14.89-6.19,20.26-0.82C34.78,29.62,36.03,33,36.02,36.48z"/>
		<path class="st9" d="M33.34,25.98c-5.96-5.96-16.04-5.59-22.46,0.82c-3.09,3.09-4.89,7.12-5.06,11.34
			c-0.09,2.14,0.25,4.2,0.97,6.09C8.21,49.81,3.3,53.92,4.35,55c0.93,0.97,4.6-3.74,11.25-2.3c1.55,0.53,3.21,0.8,4.92,0.8
			c0.22,0,0.44,0,0.66-0.01c4.22-0.17,8.24-1.97,11.34-5.06C38.93,42.02,39.3,31.94,33.34,25.98z M30.31,46.23
			c-2.54,2.54-5.83,4.01-9.26,4.15c-3.39,0.14-6.51-1.04-8.79-3.33c-2.28-2.28-3.47-5.41-3.33-8.79c0.14-3.43,1.61-6.72,4.15-9.26
			c2.76-2.76,6.33-4.16,9.78-4.16c3.06,0,6.04,1.1,8.27,3.33C35.88,32.93,35.52,41.03,30.31,46.23z"/>
		<g>
			<path class="st6" d="M46.3,34.15c-0.86,0-1.62-0.6-1.8-1.48c-1.79-9.06-8.8-16.07-17.86-17.86c-0.99-0.2-1.64-1.16-1.44-2.15
				c0.2-0.99,1.16-1.64,2.15-1.44c5.13,1.01,9.8,3.51,13.52,7.23c3.72,3.72,6.22,8.39,7.23,13.52c0.2,0.99-0.45,1.96-1.44,2.15
				C46.54,34.14,46.42,34.15,46.3,34.15z"/>
		</g>
		<g>
			<path class="st9" d="M33.41,46.33c-0.05,0-0.11,0-0.16-0.01c-0.96-0.09-1.66-0.93-1.57-1.89c0.33-3.61-1.65-8.04-5.17-11.56
				c-3.53-3.53-8.12-5.55-11.7-5.15c-0.96,0.1-1.82-0.58-1.92-1.54c-0.11-0.96,0.58-1.82,1.54-1.92c4.66-0.52,10.23,1.84,14.54,6.15
				c4.23,4.23,6.6,9.72,6.17,14.33C35.06,45.65,34.3,46.33,33.41,46.33z"/>
		</g>
		<g>
			<path class="st9" d="M26.74,51.96c-0.2,0-0.41-0.03-0.62-0.11c-0.95-0.34-1.45-1.39-1.11-2.34c1.09-3.05-0.6-7.62-4.09-11.12
				c-3.51-3.51-8.09-5.19-11.14-4.09c-0.95,0.34-2-0.15-2.35-1.1c-0.34-0.95,0.15-2,1.1-2.35c4.41-1.6,10.43,0.39,14.98,4.94
				c4.53,4.53,6.52,10.54,4.95,14.94C28.2,51.49,27.5,51.96,26.74,51.96z"/>
		</g>
		<g>
			<path class="st9" d="M19.75,53.24c-0.17,0-0.33-0.02-0.5-0.07c-1.03-0.28-1.63-1.33-1.36-2.36c0.41-1.51-0.26-4.25-2.7-6.69
				c-2.06-2.06-4.79-3.18-6.64-2.71c-1.03,0.26-2.08-0.36-2.34-1.39c-0.26-1.03,0.36-2.08,1.39-2.34c3.19-0.81,7.24,0.65,10.31,3.72
				c3.11,3.11,4.56,7.2,3.69,10.41C21.37,52.68,20.6,53.24,19.75,53.24z"/>
		</g>
		<g>
			<path class="st6" d="M56.13,32.2c-0.86,0-1.62-0.6-1.8-1.48C51.76,17.66,41.65,7.56,28.6,4.98c-0.99-0.2-1.64-1.16-1.44-2.15
				c0.2-0.99,1.16-1.64,2.15-1.44c7.07,1.4,13.52,4.85,18.65,9.98c5.13,5.13,8.58,11.58,9.97,18.65c0.2,0.99-0.45,1.96-1.44,2.15
				C56.37,32.18,56.25,32.2,56.13,32.2z"/>
		</g>
	</g>
	<g>
		<path class="st6" d="M211.98,41.94c-0.69,0-1.3-0.48-1.44-1.18c-0.99-4.99-4.85-8.86-9.85-9.85c-0.79-0.16-1.31-0.93-1.15-1.72
			c0.16-0.79,0.93-1.31,1.72-1.15c6.16,1.22,10.93,5.99,12.15,12.15c0.16,0.79-0.36,1.56-1.15,1.72
			C212.17,41.93,212.08,41.94,211.98,41.94z"/>
	</g>
	<g>
		<path class="st6" d="M218.17,40.71c-0.69,0-1.3-0.48-1.44-1.18c-1.49-7.51-7.3-13.32-14.8-14.8c-0.79-0.16-1.31-0.93-1.15-1.72
			c0.16-0.79,0.93-1.31,1.72-1.15c8.68,1.72,15.39,8.43,17.11,17.11c0.16,0.79-0.36,1.56-1.15,1.72
			C218.36,40.7,218.27,40.71,218.17,40.71z"/>
	</g>
</g>
</svg>
